<?xml version="1.0" encoding="utf-8"?>
<!-- Generator: Adobe Illustrator 21.0.1, SVG Export Plug-In . SVG Version: 6.00 Build 0)  -->
<svg version="1.1" id="Layer_1" xmlns="http://www.w3.org/2000/svg" xmlns:xlink="http://www.w3.org/1999/xlink" x="0px" y="0px"
	 viewBox="0 0 100 99.8" style="enable-background:new 0 0 100 99.8;" xml:space="preserve">
<style type="text/css">
	.st0{fill:#545E6F;}
</style>
<g>
	<path class="st0" d="M93.6,44.9L79,42.1c0,0-1.2-13.2-1.3-15c-0.2-0.8-0.2-1.5-0.6-2.5c-2.9-1-5.2-2.9-6.3-5.6
		c-0.6-0.2-1-0.2-1.3-0.2c-1.3,0-16.9,0.6-16.9,0.6c-1.5-0.2-2.9,0.8-3.5,2.1l-4,15.3c-0.6,1.7-0.4,2.7,1.5,2.9
		c1.9,0.4,2.5-0.6,2.9-1.9l4-12.9h7.7c-1.3,3.8-4,11.3-5.9,14.2c-1.7,2.5-5.4,5.9-6.5,8.8L36,59.3c-0.6,0.6-1.3,0.6-1.9,0.2
		L20.3,48.8c-2.1-1.9-4-2.5-5.6-0.6c-1.7,1.9-1.2,4.6,1,6.5l15.7,14.6c1,1,2.3,1.3,3.5,1.3s2.3-0.4,3.3-1.2l16.7-13.4l15.3,13.2
		c0.4,0.4,0.8,1,1,1.3l8.6,19.8c1,1.7,2.7,4.2,5.2,3.1c2.5-1.2,2.5-2.9,1.5-5.9l-7.1-22.2c-0.4-0.6-0.8-1.2-1.2-1.5L65,51.5
		c3.1-3.8,6.5-8.6,7.9-10.5l1,4.6c0.2,1.3,1.3,2.3,2.5,2.5c0,0,16.5,1.7,16.7,1.7c1.5,0,2.1-0.4,2.3-1.9
		C95.7,46.1,95.3,45.3,93.6,44.9z"/>
	<circle class="st0" cx="80.3" cy="14.4" r="8.4"/>
	<path class="st0" d="M10.5,23.1L41,23.8c0,0,0,0,0.2,0c0.8,0,1.3-0.6,1.3-1.3c0-0.8-0.6-1.3-1.3-1.3l-30.5,1
		c-0.2,0-0.6,0.2-0.6,0.6C9.9,22.9,10.3,23.1,10.5,23.1z"/>
	<path class="st0" d="M7.8,29.8l30.5,0.8c0,0,0,0,0.2,0c0.8,0,1.3-0.6,1.3-1.3c0-0.8-0.6-1.3-1.3-1.3L7.8,28.6
		c-0.2,0-0.6,0.2-0.6,0.6S7.6,29.8,7.8,29.8z"/>
	<path class="st0" d="M37,35.9c0-0.8-0.6-1.3-1.3-1.3L5.1,35.3c-0.2,0-0.6,0.2-0.6,0.6c0,0.2,0.2,0.6,0.6,0.6l30.5,0.8
		C36.2,37.3,37,36.7,37,35.9z"/>
</g>
</svg>
