<?xml version="1.0" encoding="utf-8"?>
<!-- Generator: Adobe Illustrator 21.0.1, SVG Export Plug-In . SVG Version: 6.00 Build 0)  -->
<svg version="1.1" id="Layer_1" xmlns="http://www.w3.org/2000/svg" xmlns:xlink="http://www.w3.org/1999/xlink" x="0px" y="0px"
	 viewBox="0 0 100 99.8" style="enable-background:new 0 0 100 99.8;" xml:space="preserve">
<style type="text/css">
	.st0{fill:#545E6F;}
</style>
<path class="st0" d="M30.1,96.7c-0.4,0.4-1.2,0.8-2.2,0.8c-3.9,0-10.6-4.7-15.7-9.8c-6.5-6.5-12-15-9.2-17.9C5.9,67,14.5,72.5,21,79
	C27.7,85.1,33,93.6,30.1,96.7z"/>
<path class="st0" d="M77.9,49.3c-0.4,0.6-1.2,1-2.4,1c-3.1,0.2-7.9-2.6-13.2-7.1L43,62.5c2.8,3.3,9.8,12.2,6.1,15.7L35.6,91.6
	c-0.2,0.2-0.4,0.2-0.4,0.2H35c-0.4,0-0.4-0.2-0.4-0.4l-0.4-0.8c-2-5.9-7.5-11.8-10.6-14.8c-1.8-1.8-8.3-8.1-14.8-10.4L8,64.9
	c-0.2-0.2-0.4-0.4-0.4-0.4c0-0.4,0-0.4,0.2-0.6l13.4-13.6c3.1-3.1,10,1,15.7,6.1l19.3-19.3c-4.9-5.7-9.2-12.6-6.1-15.5
	c0.6-0.6,1.4-1,2.6-1l0,0c3.9,0,10.2,4.1,15.7,10c6.1,5.9,10.2,12.2,10.2,15.9C79,47.6,78.7,48.7,77.9,49.3z"/>
<path class="st0" d="M96.8,29.7l-13,13C83.6,43,83.4,43,83.4,43h-0.2c-0.4,0-0.4-0.2-0.4-0.4c-0.4-1-1-2.2-1.6-3.3
	c-2-3.7-5.5-7.9-9.2-11.6c-1.8-1.8-8.5-8.3-15-10.6c-0.4-0.2-0.4-0.4-0.4-0.4c0-0.4,0-0.4,0.2-0.6l13-13c1.6-1.6,4.9-0.4,7.5,1
	c3.3,1.8,7.1,4.7,10.6,8.1l0,0c6.1,6.1,10,12.6,9.8,15.9C97.7,28.7,97.5,29.3,96.8,29.7z"/>
</svg>
