<svg xmlns="http://www.w3.org/2000/svg" viewBox="0 0 93.5 93.2">
<path fill="#4bcc55" d="M46.5,91.5h0.3c12-0.1,23.3-4.8,31.7-13.4s13.1-19.9,13-31.9c-0.2-24.6-20.3-44.7-45-44.7C21.4,1.7,1.3,22,1.5,46.8
	C1.7,71.4,21.8,91.5,46.5,91.5z M20.3,43.6v-2.8c0-1.6,1.3-2.9,2.9-2.9c1.2,0,2.2,0.7,2.6,1.7v-5.7c0-1.6,1.3-2.9,2.9-2.9
	c1.2,0,2.2,0.7,2.6,1.7v-4.5c0-1.6,1.3-2.9,2.9-2.9c1.6,0,2.9,1.3,2.9,2.9v15.3h18.6V28.3c0-1.6,1.3-2.9,2.9-2.9
	c1.6,0,2.9,1.3,2.9,2.9v4.9c0.3-1.2,1.5-2.1,2.8-2.1c1.6,0,2.9,1.3,2.9,2.9v5.5c0.5-0.9,1.5-1.6,2.6-1.6c1.6,0,2.9,1.3,2.9,2.9v2.8
	c1.4,0.2,2.4,1.4,2.4,2.9c0,1.4-1.1,2.6-2.4,2.9v2.8c0,1.6-1.3,2.9-2.9,2.9c-1.1,0-2.1-0.6-2.6-1.6v5.6c0,1.6-1.3,2.9-2.9,2.9
	c-1.3,0-2.5-0.9-2.8-2.1v4.9c0,1.6-1.3,2.9-2.9,2.9c-1.6,0-2.9-1.3-2.9-2.9V49.4H37.1v15.3c0,1.6-1.3,2.9-2.9,2.9
	c-1.6,0-2.9-1.3-2.9-2.9v-4.5c-0.5,1-1.5,1.7-2.6,1.7c-1.6,0-2.9-1.3-2.9-2.9v-5.7c-0.5,1-1.5,1.7-2.6,1.7c-1.6,0-2.9-1.3-2.9-2.9
	v-2.8c-1.4-0.2-2.4-1.4-2.4-2.9S18.9,43.9,20.3,43.6z"/>
</svg>
